<?xml version="1.0" encoding="UTF-8"?>
<svg version="1.1" xmlns="http://www.w3.org/2000/svg" width="48" height="48">
<path d="M0 0 C15.84 0 31.68 0 48 0 C48 15.84 48 31.68 48 48 C32.16 48 16.32 48 0 48 C0 32.16 0 16.32 0 0 Z " fill="#5602AB" transform="translate(0,0)"/>
<path d="M0 0 C12.21 0 24.42 0 37 0 C37 10.56 37 21.12 37 32 C36.34 32 35.68 32 35 32 C35 29.69 35 27.38 35 25 C34.34 25 33.68 25 33 25 C32.01 27.64 31.02 30.28 30 33 C23.03220597 34.32719886 16.07011089 34.08825381 9 34 C9 33.34 9 32.68 9 32 C9.99 31.67 10.98 31.34 12 31 C12 23.74 12 16.48 12 9 C10.68 9 9.36 9 8 9 C6.68 9 5.36 9 4 9 C4.02356567 10.14214966 4.02356567 10.14214966 4.04760742 11.30737305 C4.11008453 14.7673394 4.14903172 18.2271869 4.1875 21.6875 C4.21263672 22.88568359 4.23777344 24.08386719 4.26367188 25.31835938 C4.27817383 27.05375977 4.27817383 27.05375977 4.29296875 28.82421875 C4.3086792 29.88729248 4.32438965 30.95036621 4.34057617 32.0456543 C3.95072857 35.42740762 3.02716571 37.28844797 1 40 C-1.1875 40.8125 -1.1875 40.8125 -3 41 C-2.67402832 40.47438477 -2.34805664 39.94876953 -2.01220703 39.40722656 C-0.70760336 36.30462352 -0.77412161 33.84662304 -0.8046875 30.484375 C-0.81113281 29.23398437 -0.81757813 27.98359375 -0.82421875 26.6953125 C-0.84097656 25.39335937 -0.85773437 24.09140625 -0.875 22.75 C-0.88402344 21.43257812 -0.89304687 20.11515625 -0.90234375 18.7578125 C-0.92591467 15.50502538 -0.95881978 12.25260411 -1 9 C-1.63292969 8.87496094 -2.26585937 8.74992188 -2.91796875 8.62109375 C-5 8 -5 8 -6.3125 6.0625 C-6.539375 5.381875 -6.76625 4.70125 -7 4 C-6.67 3.34 -6.34 2.68 -6 2 C-5.01 2 -4.02 2 -3 2 C-3.33 3.32 -3.66 4.64 -4 6 C-1.36 5.67 1.28 5.34 4 5 C2.68 4.34 1.36 3.68 0 3 C0 2.01 0 1.02 0 0 Z " fill="#5501AB" transform="translate(11,0)"/>
<path d="M0 0 C2.43816585 -0.0809723 4.87364384 -0.14046972 7.3125 -0.1875 C8.34793945 -0.22520508 8.34793945 -0.22520508 9.40429688 -0.26367188 C14.47372969 -0.33714192 14.47372969 -0.33714192 17 1.28125 C18.68447099 4.17643451 17.65250608 6.85610709 17 10 C16.34 10 15.68 10 15 10 C15 10.66 15 11.32 15 12 C16.65 12.66 18.3 13.32 20 14 C20.49079755 21.36196319 20.49079755 21.36196319 18.125 24.4375 C14.24051874 27.29373622 11.68490884 27.10622644 6.875 27.0625 C5.59367187 27.05347656 4.31234375 27.04445313 2.9921875 27.03515625 C1.51105469 27.01775391 1.51105469 27.01775391 0 27 C0 26.34 0 25.68 0 25 C0.99 24.67 1.98 24.34 3 24 C3.08681476 20.37515001 3.14032721 16.75056557 3.1875 13.125 C3.21263672 12.09246094 3.23777344 11.05992188 3.26367188 9.99609375 C3.27333984 9.00996094 3.28300781 8.02382812 3.29296875 7.0078125 C3.3086792 6.09660645 3.32438965 5.18540039 3.34057617 4.24658203 C3.22818604 3.50520996 3.1157959 2.76383789 3 2 C2.01 1.34 1.02 0.68 0 0 Z " fill="#F6E4FA" transform="translate(20,7)"/>
<path d="M0 0 C3.63 0 7.26 0 11 0 C11.33 0.99 11.66 1.98 12 3 C14.00016466 4.20882096 14.00016466 4.20882096 16 5 C16 5.33 16 5.66 16 6 C13.03 6 10.06 6 7 6 C7.33 4.68 7.66 3.36 8 2 C7.01 2 6.02 2 5 2 C5.33 3.98 5.66 5.96 6 8 C6.99 8.33 7.98 8.66 9 9 C9.11703447 13.16642697 9.18753101 17.3324259 9.25 21.5 C9.30027344 23.25957031 9.30027344 23.25957031 9.3515625 25.0546875 C9.43320178 32.32058317 8.68152734 36.74724722 5 43 C5.10339395 45.8849831 5.10339395 45.8849831 6 48 C4.02 48 2.04 48 0 48 C0 32.16 0 16.32 0 0 Z " fill="#5401AA" transform="translate(0,0)"/>
<path d="M0 0 C3.3 0 6.6 0 10 0 C9.34 0.66 8.68 1.32 8 2 C7.6774885 4.63543903 7.6774885 4.63543903 7.69140625 7.70703125 C7.66626953 8.85107422 7.64113281 9.99511719 7.61523438 11.17382812 C7.5802487 13.58783938 7.54896203 16.00190724 7.52148438 18.41601562 C7.49505859 19.56392578 7.46863281 20.71183594 7.44140625 21.89453125 C7.42795166 22.94487549 7.41449707 23.99521973 7.40063477 25.07739258 C6.94437933 28.4057496 5.99179365 30.31496183 4 33 C1.8125 33.8125 1.8125 33.8125 0 34 C0.32452148 33.47293457 0.64904297 32.94586914 0.98339844 32.40283203 C2.28250595 29.332271 2.2590291 26.88608876 2.265625 23.5546875 C2.26820312 22.31332031 2.27078125 21.07195313 2.2734375 19.79296875 C2.26570312 18.50003906 2.25796875 17.20710938 2.25 15.875 C2.25773438 14.57433594 2.26546875 13.27367187 2.2734375 11.93359375 C2.27085938 10.69480469 2.26828125 9.45601562 2.265625 8.1796875 C2.26336914 7.04257324 2.26111328 5.90545898 2.25878906 4.73388672 C2.27920746 1.85432531 2.27920746 1.85432531 0 0 Z " fill="#F7DEFE" transform="translate(8,7)"/>
<path d="M0 0 C2.43816585 -0.0809723 4.87364384 -0.14046972 7.3125 -0.1875 C8.34793945 -0.22520508 8.34793945 -0.22520508 9.40429688 -0.26367188 C14.47372969 -0.33714192 14.47372969 -0.33714192 17 1.28125 C18.68447099 4.17643451 17.65250608 6.85610709 17 10 C13.7 10.33 10.4 10.66 7 11 C7 9.68 7 8.36 7 7 C6.34 7 5.68 7 5 7 C4.731875 6.21625 4.46375 5.4325 4.1875 4.625 C3.15185568 1.71885077 3.15185568 1.71885077 0 0 Z " fill="#F1DAF9" transform="translate(20,7)"/>
<path d="M0 0 C1.32 0.33 2.64 0.66 4 1 C4 8.26 4 15.52 4 23 C2.35 23.66 0.7 24.32 -1 25 C-1 24.34 -1 23.68 -1 23 C-1.33 22.67 -1.66 22.34 -2 22 C-1.67 21.34 -1.34 20.68 -1 20 C-0.34 20 0.32 20 1 20 C1 16.04 1 12.08 1 8 C0.01 8 -0.98 8 -2 8 C-2 9.65 -2 11.3 -2 13 C-2.33 13 -2.66 13 -3 13 C-3 9.7 -3 6.4 -3 3 C-2.01 2.67 -1.02 2.34 0 2 C0 1.34 0 0.68 0 0 Z " fill="#641AAE" transform="translate(20,8)"/>
<path d="M0 0 C3.3 0 6.6 0 10 0 C10 1.98 10 3.96 10 6 C14.29 6 18.58 6 23 6 C23 6.33 23 6.66 23 7 C18.38 7 13.76 7 9 7 C8.67 7.66 8.34 8.32 8 9 C7.01 8.67 6.02 8.34 5 8 C3.27204648 7.93197033 1.54164635 7.91504355 -0.1875 7.9375 C-1.08855469 7.94652344 -1.98960938 7.95554687 -2.91796875 7.96484375 C-3.94857422 7.98224609 -3.94857422 7.98224609 -5 8 C-6.0625 6.125 -6.0625 6.125 -7 4 C-6.67 3.34 -6.34 2.68 -6 2 C-5.01 2 -4.02 2 -3 2 C-3.33 3.32 -3.66 4.64 -4 6 C-1.36 5.67 1.28 5.34 4 5 C2.68 4.34 1.36 3.68 0 3 C0 2.01 0 1.02 0 0 Z " fill="#6319AD" transform="translate(11,0)"/>
<path d="M0 0 C2.3431213 0.25561323 4.67843403 0.59270772 7 1 C8.39935013 3.79870027 8.25265405 5.90498792 8 9 C6.8125 10.875 6.8125 10.875 5 12 C3.35 12 1.7 12 0 12 C0 8.04 0 4.08 0 0 Z " fill="#5D1DA2" transform="translate(28,20)"/>
<path d="M0 0 C0.99 0.33 1.98 0.66 3 1 C3.04947698 4.93265896 3.08575578 8.86519714 3.10986328 12.7980957 C3.12485495 14.79319618 3.15026731 16.78820946 3.17578125 18.78320312 C3.18222656 20.03681641 3.18867188 21.29042969 3.1953125 22.58203125 C3.20578613 23.73936768 3.21625977 24.8967041 3.22705078 26.08911133 C3 29 3 29 1 32 C0.34 32 -0.32 32 -1 32 C-0.83628906 30.76378906 -0.67257813 29.52757812 -0.50390625 28.25390625 C0.1379312 22.47736922 0.11011588 16.74297416 0.0625 10.9375 C0.05573242 9.35291992 0.05573242 9.35291992 0.04882812 7.73632812 C0.03715918 5.15749092 0.02078885 2.57877706 0 0 Z " fill="#5B169C" transform="translate(8,8)"/>
<path d="M0 0 C2.475 0.495 2.475 0.495 5 1 C5 6 5 11 5 16 C4.34 16 3.68 16 3 16 C3.33 17.32 3.66 18.64 4 20 C2.68 19.67 1.36 19.34 0 19 C0 12.73 0 6.46 0 0 Z " fill="#5102A3" transform="translate(16,15)"/>
<path d="M0 0 C0.66 0.33 1.32 0.66 2 1 C1.690625 1.763125 1.38125 2.52625 1.0625 3.3125 C0.32106407 5.18789677 -0.36228217 7.08684652 -1 9 C-0.34 9.33 0.32 9.66 1 10 C0.85892253 11.45880109 0.71197585 12.91703551 0.5625 14.375 C0.48128906 15.18710937 0.40007813 15.99921875 0.31640625 16.8359375 C0 19 0 19 -1 21 C-2.65 21 -4.3 21 -6 21 C-5.505 20.505 -5.01 20.01 -4.5 19.5 C-2.33021905 15.88369842 -2.79111581 13.17768384 -3 9 C-4.32 8.34 -5.64 7.68 -7 7 C-7 6.34 -7 5.68 -7 5 C-6.34 5 -5.68 5 -5 5 C-4.731875 4.360625 -4.46375 3.72125 -4.1875 3.0625 C-3 1 -3 1 0 0 Z " fill="#5812A1" transform="translate(42,12)"/>
<path d="M0 0 C0.66 0.33 1.32 0.66 2 1 C2.08692074 5.27070558 2.14036515 9.54118458 2.1875 13.8125 C2.21263672 15.02744141 2.23777344 16.24238281 2.26367188 17.49414062 C2.27333984 18.65751953 2.28300781 19.82089844 2.29296875 21.01953125 C2.3086792 22.09307861 2.32438965 23.16662598 2.34057617 24.27270508 C2 27 2 27 0.48168945 28.8737793 C-0.00726807 29.24543213 -0.49622559 29.61708496 -1 30 C-1.99 29.67 -2.98 29.34 -4 29 C-3.51917969 28.08089844 -3.03835938 27.16179688 -2.54296875 26.21484375 C-0.37006883 21.14474393 -0.4364696 16.00653624 -0.3125 10.5625 C-0.27833984 9.54478516 -0.24417969 8.52707031 -0.20898438 7.47851562 C-0.12706373 4.98578734 -0.05773351 2.49338598 0 0 Z " fill="#FCEEFE" transform="translate(12,11)"/>
<path d="M0 0 C0.33 0 0.66 0 1 0 C1 3.96 1 7.92 1 12 C4.465 11.505 4.465 11.505 8 11 C8.33 9.02 8.66 7.04 9 5 C10.4606285 7.64738916 11 8.89448334 11 12 C7.29583874 14.37590142 4.07015427 14.20500286 -0.25 14.125 C-1.51328125 14.10695313 -2.7765625 14.08890625 -4.078125 14.0703125 C-5.04234375 14.04710937 -6.0065625 14.02390625 -7 14 C-7 13.34 -7 12.68 -7 12 C-5.35 11.34 -3.7 10.68 -2 10 C-2 10.66 -2 11.32 -2 12 C-1.34 12 -0.68 12 0 12 C0 8.04 0 4.08 0 0 Z " fill="#E5C8F5" transform="translate(27,20)"/>
<path d="M0 0 C0.33 1.32 0.66 2.64 1 4 C1.66 4 2.32 4 3 4 C4.50875941 10.03503763 3.64186094 15.89738369 3 22 C2.34 22 1.68 22 1 22 C-0.20029908 19.59940183 -0.11459743 18.10639351 -0.09765625 15.4296875 C-0.09443359 14.53378906 -0.09121094 13.63789063 -0.08789062 12.71484375 C-0.07951172 11.77769531 -0.07113281 10.84054688 -0.0625 9.875 C-0.05798828 8.93011719 -0.05347656 7.98523438 -0.04882812 7.01171875 C-0.03702357 4.67441613 -0.02055759 2.33723939 0 0 Z " fill="#FDF7FB" transform="translate(24,10)"/>
<path d="M0 0 C1.06347656 -0.01417969 2.12695312 -0.02835937 3.22265625 -0.04296875 C5.9375 0.1875 5.9375 0.1875 7.9375 2.1875 C7.6075 2.8475 7.2775 3.5075 6.9375 4.1875 C7.5975 4.1875 8.2575 4.1875 8.9375 4.1875 C9.2675 5.8375 9.5975 7.4875 9.9375 9.1875 C9.215625 8.383125 8.49375 7.57875 7.75 6.75 C3.04340032 2.7157717 -3.15669344 3.28388557 -9.0625 3.1875 C-9.0625 2.5275 -9.0625 1.8675 -9.0625 1.1875 C-5.83852808 0.11284269 -3.38779214 0.02058197 0 0 Z " fill="#4C03A3" transform="translate(30.0625,2.8125)"/>
<path d="M0 0 C2.475 0.495 2.475 0.495 5 1 C5.6875 3.8125 5.6875 3.8125 6 7 C4.75 8.875 4.75 8.875 3 10 C2.01 10 1.02 10 0 10 C0 6.7 0 3.4 0 0 Z " fill="#551C9E" transform="translate(28,8)"/>
<path d="M0 0 C0.625 1.875 0.625 1.875 1 4 C0.34 4.66 -0.32 5.32 -1 6 C-1.95168683 8.85506049 -2.1900946 10.90937282 -2.31640625 13.88671875 C-2.35830078 14.82451172 -2.40019531 15.76230469 -2.44335938 16.72851562 C-2.48267578 17.70498047 -2.52199219 18.68144531 -2.5625 19.6875 C-2.60568359 20.67556641 -2.64886719 21.66363281 -2.69335938 22.68164062 C-2.79941654 25.12095546 -2.90147714 27.56037113 -3 30 C-3.33 30 -3.66 30 -4 30 C-4 21.09 -4 12.18 -4 3 C-2.68 3 -1.36 3 0 3 C0 2.01 0 1.02 0 0 Z " fill="#470D80" transform="translate(19,6)"/>
<path d="M0 0 C0 0.66 0 1.32 0 2 C-4.95 2.33 -9.9 2.66 -15 3 C-15.66 2.01 -16.32 1.02 -17 0 C-14.9174133 -0.19561869 -12.83388144 -0.38119313 -10.75 -0.5625 C-9.58984375 -0.66691406 -8.4296875 -0.77132812 -7.234375 -0.87890625 C-4.48128523 -0.98198087 -2.580018 -0.86213473 0 0 Z " fill="#4B0C95" transform="translate(38,34)"/>
<path d="M0 0 C0.33 0.99 0.66 1.98 1 3 C2.65 3 4.3 3 6 3 C5.34 5.31 4.68 7.62 4 10 C2.68 10 1.36 10 0 10 C0 6.7 0 3.4 0 0 Z " fill="#5405A3" transform="translate(28,21)"/>
<path d="M0 0 C0.99 0.66 1.98 1.32 3 2 C2.85892253 3.45880109 2.71197585 4.91703551 2.5625 6.375 C2.48128906 7.18710937 2.40007813 7.99921875 2.31640625 8.8359375 C2 11 2 11 1 13 C-0.65 13 -2.3 13 -4 13 C-3.525625 12.525625 -3.05125 12.05125 -2.5625 11.5625 C-0.31923904 7.88355203 -0.26260422 4.2378888 0 0 Z " fill="#5F1EA5" transform="translate(40,20)"/>
<path d="M0 0 C0.99 0 1.98 0 3 0 C3.33 0.99 3.66 1.98 4 3 C6.00016466 4.20882096 6.00016466 4.20882096 8 5 C8 5.33 8 5.66 8 6 C5.03 6 2.06 6 -1 6 C-0.67 4.02 -0.34 2.04 0 0 Z " fill="#4E0598" transform="translate(8,0)"/>
<path d="M0 0 C1.32 0.66 2.64 1.32 4 2 C3.34 3.65 2.68 5.3 2 7 C2.66 7.33 3.32 7.66 4 8 C2.68 8 1.36 8 0 8 C-0.66 6.02 -1.32 4.04 -2 2 C-1.34 2 -0.68 2 0 2 C0 1.34 0 0.68 0 0 Z " fill="#5E0DB4" transform="translate(6,40)"/>
<path d="M0 0 C0.99 0 1.98 0 3 0 C2.67 1.32 2.34 2.64 2 4 C5.63 4 9.26 4 13 4 C13 4.33 13 4.66 13 5 C7.06 5.495 7.06 5.495 1 6 C0.34 4.68 -0.32 3.36 -1 2 C-0.67 1.34 -0.34 0.68 0 0 Z " fill="#6F27BA" transform="translate(5,2)"/>
<path d="M0 0 C1.258125 -0.04125 2.51625 -0.0825 3.8125 -0.125 C4.52019531 -0.14820313 5.22789063 -0.17140625 5.95703125 -0.1953125 C8 0 8 0 11 2 C11.6875 4.625 11.6875 4.625 12 7 C11.13375 6.195625 10.2675 5.39125 9.375 4.5625 C6.37123907 2.03075864 3.96796738 1.28342624 0 1 C0 0.67 0 0.34 0 0 Z " fill="#511598" transform="translate(28,5)"/>
<path d="M0 0 C0.625 1.875 0.625 1.875 1 4 C0.34 4.66 -0.32 5.32 -1 6 C-1.33 6.99 -1.66 7.98 -2 9 C-2.66 9 -3.32 9 -4 9 C-4 7.02 -4 5.04 -4 3 C-2.68 3 -1.36 3 0 3 C0 2.01 0 1.02 0 0 Z " fill="#480E8F" transform="translate(19,6)"/>
</svg>
